<?xml version="1.0"?>
<svg width="1280" height="1280" xmlns="http://www.w3.org/2000/svg" xmlns:svg="http://www.w3.org/2000/svg" preserveAspectRatio="xMidYMid meet">
 <metadata>Created by potrace 1.15, written by Peter Selinger 2001-2017</metadata>
 <g class="layer">
  <title>Layer 1</title>
  <g fill="#000000" id="svg_1" transform="translate(0 1280) scale(0.1 -0.1)">
   <path d="m4202,11749c-171,-22 -300,-87 -428,-214c-75,-74 -99,-106 -136,-182c-26,-50 -55,-127 -65,-170c-17,-75 -18,-257 -18,-4788c0,-4487 1,-4713 18,-4780c10,-38 38,-113 64,-165c39,-80 59,-108 137,-185c76,-76 106,-99 186,-138c183,-90 -52,-82 2440,-82c2492,0 2257,-8 2440,82c80,39 110,62 186,138c78,77 98,105 137,185c26,52 54,127 64,165c17,67 18,293 18,4785c0,4492 -1,4718 -18,4785c-10,39 -38,113 -64,165c-39,80 -59,108 -137,185c-103,103 -199,160 -333,198l-78,22l-2175,1c-1196,1 -2203,-2 -2238,-7zm2686,-701c18,-18 15,-94 -4,-112c-14,-14 -71,-16 -484,-16c-413,0 -470,2 -484,16c-19,18 -22,94 -4,112c17,17 959,17 976,0zm1852,-4648l0,-3810l-2340,0l-2340,0l0,3810l0,3810l2340,0l2340,0l0,-3810zm-2270,-4141c196,-31 349,-185 382,-383c37,-225 -113,-452 -337,-511c-260,-67 -520,103 -566,371c-41,239 132,483 371,523c76,12 77,12 150,0z" fill="#ffffff" id="svg_2"/>
  </g>
 </g>
</svg>